<svg xmlns="http://www.w3.org/2000/svg" xmlns:xlink="http://www.w3.org/1999/xlink"><symbol id="light" viewBox="0 0 80 80"><path fill="currentColor" d="m39.94 1.865-.864 1.623-5.812 10.918L21 7.213V21H7.19l7.353 12.217-12.684 6.722 12.596 6.975L7.19 59H21v13.707l12.172-7.166 6.783 12.51 6.822-12.512L59 72.703V59h13.695l-7.02-12.086 12.35-6.975-12.437-6.722L72.698 21H59V7.18L46.96 14.5 39.94 1.865zm.037 4.186 6.246 11.24L57 10.736V23h12.219L62.82 33.996l11.07 5.983-10.96 6.19L69.22 57H57v12.213L46.008 62.77 39.96 73.863l-6.02-11.095L23 69.209V57H10.727l6.51-10.83-11.18-6.191 11.289-5.983L10.726 23H23V10.703l11.05 6.483L39.978 6.05zm-2.065 8.953c-.55.05-.948.53-.908 1.08a.99.99 0 0 0 1.078.91c.52-.04.922-.48.922-.99a.281.281 0 0 0-.012-.09.986.986 0 0 0-1.08-.91zm4.162.004a.983.983 0 0 0-1.07.91.99.99 0 0 0 .91 1.078c.55.04 1.03-.37 1.08-.92v-.08a.99.99 0 0 0-.92-.988zM29.64 17.234c-.124.009-.25.04-.37.098a.983.983 0 0 0-.468 1.324.991.991 0 0 0 1.328.479c.496-.241.707-.835.475-1.336l-.041-.07a.995.995 0 0 0-.924-.495zm20.707 0c-.388-.014-.765.2-.946.573a.991.991 0 0 0 .479 1.328 1 1 0 0 0 1.293-.395.262.262 0 0 0 .035-.084.985.985 0 0 0-.477-1.328 1.003 1.003 0 0 0-.384-.094zM40 19c-11.586 0-21 9.414-21 21s9.414 21 21 21 21-9.414 21-21-9.414-21-21-21zm-13.582.246a.99.99 0 0 0-.75.168c-.45.32-.556.937-.246 1.393.31.455.94.565 1.39.246a1 1 0 0 0 .3-1.319c-.016-.026-.03-.053-.053-.074a.982.982 0 0 0-.641-.414zm27.166.006a.983.983 0 0 0-.639.416.992.992 0 0 0 .246 1.39 1.013 1.013 0 0 0 1.397-.253l.04-.07a.991.991 0 0 0-.3-1.317.98.98 0 0 0-.744-.166zM40 21c10.505 0 19 8.495 19 19s-8.495 19-19 19-19-8.495-19-19 8.495-19 19-19zm-19.613 4.246a.99.99 0 0 0-.967.424.981.981 0 0 0 .25 1.38.993.993 0 0 0 1.39-.245 1.014 1.014 0 0 0-.253-1.397 1.686 1.686 0 0 1-.07-.039.993.993 0 0 0-.35-.123zm39.552.01c-.25-.044-.52.007-.748.162a.992.992 0 0 0-.246 1.39 1 1 0 0 0 1.319.301c.026-.015.053-.03.074-.054a.986.986 0 0 0 .244-1.39.994.994 0 0 0-.643-.41zM18.275 28.69a.993.993 0 0 0-.947.577 1.004 1.004 0 0 0 .479 1.328.994.994 0 0 0 1.33-.479 1 1 0 0 0-.397-1.293c-.025-.014-.05-.029-.082-.035a.98.98 0 0 0-.383-.098zm43.45.008a.986.986 0 0 0-.383.1.992.992 0 0 0-.479 1.328c.241.495.837.705 1.338.473l.07-.04a.993.993 0 0 0 .395-1.292.985.985 0 0 0-.941-.569zm2.191 8.305a.99.99 0 0 0-.91 1.078c.04.52.48.922.99.922.03 0 .06-.002.09-.012.55-.04.96-.52.91-1.08a1.004 1.004 0 0 0-1.08-.908zm-47.92.002a.99.99 0 0 0-.988.92c-.05.55.36 1.03.91 1.07a.99.99 0 0 0 1.078-.91c.04-.55-.37-1.03-.92-1.08h-.08zm.008 3.99a.281.281 0 0 0-.09.012c-.55.04-.96.52-.91 1.08.05.55.53.948 1.08.908a.99.99 0 0 0 .91-1.078c-.04-.52-.48-.922-.99-.922zm48.078.008a.99.99 0 0 0-1.078.91c-.04.55.37 1.03.92 1.08h.08a.99.99 0 0 0 .988-.92.983.983 0 0 0-.91-1.07zM18.15 49.227c-.13.004-.26.034-.386.091a1.267 1.267 0 0 0-.069.04.993.993 0 0 0-.4 1.29.984.984 0 0 0 1.322.475.991.991 0 0 0 .483-1.326 1.012 1.012 0 0 0-.95-.57zm43.625.158a.996.996 0 0 0-.947.57c-.228.47-.05 1.038.39 1.295.027.014.052.03.083.035a.988.988 0 0 0 1.332-.472 1.005 1.005 0 0 0-.858-1.428zm-41.736 3.31a.977.977 0 0 0-.352.12.27.27 0 0 0-.072.054.989.989 0 0 0-.252 1.39c.318.453.934.56 1.39.25a.994.994 0 0 0 .253-1.39 1.003 1.003 0 0 0-.967-.424zm39.498.157a.977.977 0 0 0-.644.41 1.013 1.013 0 0 0 .248 1.396l.07.041a.992.992 0 0 0 1.318-.295.984.984 0 0 0-.246-1.383.993.993 0 0 0-.746-.17zM25.988 58.73a1.011 1.011 0 0 0-.646.41l-.041.07a.992.992 0 0 0 .295 1.32.984.984 0 0 0 1.383-.247.99.99 0 0 0-.99-1.553zm27.881.1a.997.997 0 0 0-.75.164 1.002 1.002 0 0 0-.305 1.319.27.27 0 0 0 .055.072.989.989 0 0 0 1.39.252c.453-.318.56-.934.25-1.39a.98.98 0 0 0-.64-.417zm-24.19 1.9a1 1 0 0 0-.929.489c-.014.026-.03.05-.035.082a.988.988 0 0 0 .473 1.332c.5.234 1.087.02 1.33-.475a.991.991 0 0 0-.473-1.33.994.994 0 0 0-.365-.098zm20.503.075a.973.973 0 0 0-.385.095 1.014 1.014 0 0 0-.479 1.336c.01.017.023.043.04.069a.993.993 0 0 0 1.29.4.984.984 0 0 0 .475-1.322.995.995 0 0 0-.941-.578zm-12.096 2.199c-.55-.04-1.03.37-1.08.92v.08c0 .51.39.948.92.988a.983.983 0 0 0 1.07-.91.99.99 0 0 0-.91-1.078zm3.832.002c-.52.04-.922.48-.922.99 0 .03.002.06.012.09.04.55.52.96 1.08.91.55-.05.948-.53.908-1.08a.99.99 0 0 0-1.078-.91z"/></symbol><symbol id="dark" viewBox="0 0 80 80"><path fill="currentColor" d="m30.984 8.113-2.789 1.07C15.801 13.934 7 25.946 7 40c0 18.215 14.785 33 33 33 14.055 0 26.066-8.8 30.816-21.195l1.07-2.79-2.53 1.583A28.83 28.83 0 0 1 54 55c-16.027 0-29-12.973-29-29a28.83 28.83 0 0 1 4.402-15.355ZM26.25 12.31C24.203 16.445 23 21.074 23 26c0 17.11 13.89 31 31 31 4.926 0 9.555-1.203 13.691-3.25C62.621 63.95 52.171 71 40 71 22.867 71 9 57.133 9 40c0-12.172 7.05-22.621 17.25-27.691Zm-5.328 7.597c-.27 0-.531.106-.719.297a.995.995 0 0 0 0 1.41.995.995 0 0 0 1.41 0 .995.995 0 0 0 0-1.41.983.983 0 0 0-.691-.297ZM17.566 24a.993.993 0 0 0-.847.441 1 1 0 0 0 .277 1.387 1 1 0 1 0 .57-1.828Zm-2.488 4.668a.995.995 0 0 0-.945.617c-.211.512.031 1.094.539 1.309a1.002 1.002 0 0 0 1.308-.543.997.997 0 0 0-.543-1.305.943.943 0 0 0-.359-.078Zm-1.531 5.066a1 1 0 1 0 .953 1.192 1 1 0 0 0-.781-1.176c-.059-.008-.114-.016-.172-.016ZM13 39c-.55 0-1 .45-1 1s.45 1 1 1 1-.45 1-1-.45-1-1-1Zm.523 5.266a1.001 1.001 0 1 0 .191 1.984 1.003 1.003 0 0 0-.191-1.984Zm1.54 5.066c-.133 0-.266.023-.391.074a1.006 1.006 0 0 0-.54.543c-.1.246-.1.52-.003.766a.998.998 0 0 0 1.309.539.98.98 0 0 0 .542-.54 1 1 0 0 0-.918-1.382Zm2.5 4.668a.974.974 0 0 0-.567.168 1.004 1.004 0 0 0-.277 1.387c.308.457.93.582 1.39.273A.999.999 0 0 0 17.562 54Zm3.359 4.094a.988.988 0 0 0-.719.293.995.995 0 0 0 0 1.41.995.995 0 0 0 1.41 0 .995.995 0 0 0 0-1.41.963.963 0 0 0-.691-.293Zm38.183 0a.988.988 0 0 0-.718.293.995.995 0 0 0 0 1.41.995.995 0 0 0 1.41 0 .995.995 0 0 0 0-1.41.963.963 0 0 0-.692-.293ZM25.02 61.449a.993.993 0 0 0-.848.442 1 1 0 1 0 .848-.441Zm29.992 0a1 1 0 0 0-.567.164.997.997 0 0 0-.273 1.39c.305.458.926.583 1.387.278.457-.308.582-.93.273-1.39a.983.983 0 0 0-.82-.442Zm-25.32 2.492a.999.999 0 0 0-.946.621 1 1 0 1 0 1.305-.542 1.022 1.022 0 0 0-.36-.079Zm20.648 0c-.133 0-.266.028-.387.079a1.006 1.006 0 0 0-.547 1.308 1.004 1.004 0 0 0 1.852 0 1 1 0 0 0 0-.766.999.999 0 0 0-.918-.62Zm-15.578 1.54a1 1 0 1 0-.053 2 1 1 0 0 0 .053-2Zm10.508.003a.808.808 0 0 0-.196.016c-.543.11-.894.633-.789 1.176a1.01 1.01 0 0 0 1.18.79c.258-.056.488-.208.637-.427a1 1 0 0 0-.832-1.555ZM40 66c-.55 0-1 .45-1 1s.45 1 1 1 1-.45 1-1-.45-1-1-1Z"/></symbol></svg>
